<svg xmlns="http://www.w3.org/2000/svg" viewBox="0 0 722.21 270.08"><defs><style>.a{fill:#f7d645;}.b{fill:#fcaf4f;}.c{fill:#559dbb;}.d{fill:#283386;}.e{fill:#fff;}.f{fill:#f79c8c;}.g{fill:#8b703a;}.h{fill:#e6cfa9;}.i{fill:#ac3426;}</style></defs><title>road-runner-vector</title><polygon class="a" points="708.46 225.77 707.8 228.73 709.49 228.4 711.22 226.17 708.46 225.77"/><polygon class="a" points="694.55 226.17 694.05 229.61 696.54 228.56 698.03 226.71 694.55 226.17"/><polygon class="a" points="675.75 209.97 677.58 213.09 674.89 213.09 673.89 211.29 675.75 209.97"/><path class="b" d="M644,356.78s3.47-5.54,6-6.58,23.25-9.15,23.25-9.15l13.8-6.59,17.48-11.38,12.49-7.41,3.45.73,4.05,4.68s11.09,10.86,15.81,13.65,6.38,4.12,7.77,4.25,3.63,2.17,4.78,3.52a12.8,12.8,0,0,1,7.57,9.1c1.2,5.58.4,12.82-1.53,16.07s-5.3,7.13-10.16,5.92-2-6.65-2-6.65l-.84-2.39s-1.65,6.24-4.45,7.9-7.93,4.24-8.42-.53.65-8.83.45-15.87-1.71-13.32-6.51-19.86-8.83-10-12.29-6.31-5.16,7.52-4.12,13.22,3.33,9.66,4.25,11.89-.86,6.84-7.11,3.12-11.22-13.81-11.22-16.67,2.49-5.81,4.71-6.31a8.65,8.65,0,0,1,.46-2.72s-3.92.73-12.09,4.78-19.6,9.61-24,13.4-14.89,10.65-17.28,10.18S644,356.78,644,356.78Z" transform="translate(-39.91 -147.96)"/><polygon class="a" points="458.58 206.56 461.94 205.09 461.69 207.01 458.58 206.56"/><polygon class="a" points="439.95 205.74 436.67 203.62 437.04 206.8 439.01 206.66 439.95 205.74"/><path class="a" d="M472.63,354.83a26.37,26.37,0,0,0-2-1.92c-.08.07-.45,2.73-.45,2.73l.87,1.09Z" transform="translate(-39.91 -147.96)"/><path class="b" d="M595.11,348.3s-3.55-2.62-4.91-1.69-6.54,5.15-8.4,6.44-6.18,3.87-10,5.89A69.27,69.27,0,0,1,556.49,364c-3.49.6-10.42,1.86-16.94,2.33S529,366,528,363a9.8,9.8,0,0,1-.33-5.31s1.16-4.95-2.26-6.71-12-3.32-16.6-1.83-7.56,2.89-7,5.41,2.73,2.86,6.15,3.09,8.7.9,11,2.62,4.42,4.72,3.69,5.51a30,30,0,0,1-10.19.2c-3.43-.63-8.56-2.92-14.52-7s-10-6-13.34-6a8.32,8.32,0,0,0-6.07,2.16c-2.06-.2-4.45-.74-5.85.29s-2.35,2.93.27,6.37a34.09,34.09,0,0,0,10.06,8.57c3.25,1.73,6,2,11.23,2s12-.1,17.2.2a27.84,27.84,0,0,1,11.33,2.72c2.66,1.33,5.54,2.59,11.06.3s13.88-4.91,21.82-7.31,15.48-4.64,21.65-5.91,18.26-3.69,18.26-3.69-2.69-.73-3.12-2.62.1-4.92,1.16-6S595.11,348.3,595.11,348.3Z" transform="translate(-39.91 -147.96)"/><polygon class="c" points="603.29 194.86 610.73 202.24 605.78 206.15 603.87 209.33 600.37 207.77 591.6 204.26 599.68 197.05 603.29 194.86"/><path class="d" d="M648,323.09a4.12,4.12,0,0,1,3.59,4.18c.2,3.88-3.49,15.22-13.55,18.57C636.82,334.75,648,323.09,648,323.09Z" transform="translate(-39.91 -147.96)"/><path class="c" d="M670.1,251.59s3.71,1.86,7.48,10.63.88,20.52-8.48,30.29-20.72,20.62-41.74,29.89c-.8,5.38-33.47,10.46-41.64,8.47s-15.94-1.59-33.77-7.07-41.64-15.34-59.87-20.62-29.49-4.88-40.35-.5-10.86,8.27-5.38,9.07c-5,1.29-14.55,5.28-26,11.06s-24.51,12.75-34.77,14.54-13,5.28-3,5.58,10.86,0,10.86,0-17.53,5.48-26.8,7.27-18.93,4.88-9,8.37,23.51,4.48,44.73-3.09,39.65-21.12,39.65-21.12-.1,2.19,7.87,0,13.35-5.18,19.23-5.78c-4.88,2.29-13.15,7.07-11.16,8.77s12.15-1.59,20.22-4.08a88.33,88.33,0,0,1,26.3-4.58c-6.38,1.89-18.33,7-15.24,10.36s18.33-3,18.33-3-1.2,2.59,4.48,2.49,23.41-1.4,30.19-3.09c-3.19,1.79-5.68,3.69-4.78,4.88s15.24-3.09,22.62-3.79,17.53-1.59,22.91-.9c9.17,2.79,25.6,11.26,25.6,11.26s8,7.37,16.94,5.88,21.42-10.06,23.31-29.89c3.89-5.18,11.76-11.16,18.83-18.13S688,281.55,687,271.18s-3.69-19.21-2.19-22.66C679.26,249.87,670.1,251.59,670.1,251.59Z" transform="translate(-39.91 -147.96)"/><path class="b" d="M648.38,237.6s-1.52-6.6,2.79-8.39,5.31,1.59,5.31,1.59l.59,7.19S652,242.47,648.38,237.6Z" transform="translate(-39.91 -147.96)"/><path class="d" d="M664.52,224.54s8.37-11.47,10.83-4.17c2.92-2.13,7.84-5.38,7.31,3.05,1.39.27,2.79,1.79,3.19,5.21s0,5.29.59,6.84c-3.11,1.42-15.2,2.89-15.2,2.89l-3.12-7.57Z" transform="translate(-39.91 -147.96)"/><path class="e" d="M654.82,233.2a21.3,21.3,0,0,1,6.31-7.17c4.45-3.25,9.5-5.38,8,0-4.45,7.51-9.5,14.28-13.48,13.29C654.37,238.36,654.82,233.2,654.82,233.2Z" transform="translate(-39.91 -147.96)"/><path class="e" d="M660.3,235.65a16.37,16.37,0,0,1,6-8c4.45-2.92,7.64-3.85,11.16-2.39-.27,1.86-1.2,6-6.71,10.43s-8.43,5.38-8.43,5.38l-2.86-.53Z" transform="translate(-39.91 -147.96)"/><path class="b" d="M637.82,243.69s-3.49-10.36,8.47-15a29,29,0,0,0-1.29,7s4.58,4.72,14.28,1.79a5.7,5.7,0,0,0,1.86,3.59s5.51-6,11.42-7.5a18,18,0,0,1,18,5.31c5.38,5.65,1.86,14.08-22.18,12.75-2.39,2-16.54,9.7-22.71-7.37C642.47,243.89,637.82,243.69,637.82,243.69Z" transform="translate(-39.91 -147.96)"/><path class="f" d="M649,251.33s-7.64,2.39-12.88,6.24S620,271.44,617.23,266.8s.2-13.55,7.24-17.93,10.83-5.38,20.66-4.38C646.59,247.41,646.92,248.87,649,251.33Z" transform="translate(-39.91 -147.96)"/><path d="M645,235.65a32.61,32.61,0,0,0,.66,8.57" transform="translate(-39.91 -147.96)"/><path d="M661.13,241c-1.58,1.55-1.66,2.52-1.66,2.52" transform="translate(-39.91 -147.96)"/><ellipse cx="614.58" cy="87.53" rx="1.59" ry="3.22"/><ellipse cx="620.03" cy="89.9" rx="1.53" ry="3.58"/><path d="M672.75,223.23a10,10,0,0,1,2.59-2.86" transform="translate(-39.91 -147.96)"/><path class="d" d="M682,220.38s2.86-8.77,1.06-17.67-8.7-13.81-13.55-19.19-6.58-7.84-7.9-14.48-3.85-4.72-4.72-.93-.46,8.24,2.72,13.75c-6-3-15.28-8.37-40-6.38s-46.49,18.6-44.43,26.43c1.46,5.65,15.94,2.33,24.71.27s22.71-5.91,28.83-6.38c-3.12,1.86-8.58,6.11.66,4.65s15.68-2.19,20.39-1.93c-2.92,1.13-9,3.45-8.77,4.65s6.84.13,14.74.86,10,1.73,12.79,3.45c-3.42-.2-9.33-.53-9,1.93s5.71,1.93,11.09,4.05,6.34,2.72,7,6.91A11.18,11.18,0,0,1,682,220.38Z" transform="translate(-39.91 -147.96)"/><path d="M673.18,210.31" transform="translate(-39.91 -147.96)"/><path d="M634.63,328.27c.46-4.5,1.69-8.77-10-7.27s-32.78,6.08-32,11.86,16.54,14.54,27,12.75S634.3,331.56,634.63,328.27Z" transform="translate(-39.91 -147.96)"/><path class="d" d="M594.68,330.36s-7.77-1.89-13.15-2.69-14.15-4.28-6.58,2.69,18.13,11.06,28.89,11.56C598,332.26,594.68,330.36,594.68,330.36Z" transform="translate(-39.91 -147.96)"/><path class="d" d="M613.17,345.56a40.33,40.33,0,0,1-18.09-1.45c-9.26-3.09-7.77-5.67-8-7.07C594.38,338.63,609.25,340.83,613.17,345.56Z" transform="translate(-39.91 -147.96)"/><path d="M682.95,219.48s2.09-7.52,1.79-12.25-.85-9.41-5.83-15.09-12.7-12.8-14.54-16.69-2.69-12.26-5.18-12.26-6,7.92-1,17c-5.63-2.74-13.85-6.72-32.33-6.23s-31.13,6.53-41.59,13.1-12,13.8-9.86,16.69,11,3.29,28.29-1.4,22.51-5.58,22.51-5.58-6.33,5.33.2,5,13.7-2.89,20.62-2.64c-4.23,1.44-7.47,3.34-6.48,5.13s10.81-.5,17.63.45,8.52,1.94,8.52,1.94-7.77-.35-7.77,2.54,4.28,2,10.81,4.38,6.43,2.69,8.22,5.08c.9-.1,1.15-.5,1.15-.5s-2.51-4.83-9.6-6.43-9.93-3.09-5.65-3.69a15.15,15.15,0,0,1,7.62.65c1.89,1.15,3.09,2,3.09,2s-2.24-3.79-6-5-7.12-3-15.34-2.89-12.85,1.1-7.42-1.4,9.86-3.09,16-1.34c-5.08-1.94-10.36-3.44-21-2.19s-17.38,3.79-12.75,0,11.76-4.48,15.54-4.38c-3-.65-8.37-1.1-12.9,1-4,.65-14.79,3-23.06,4.93s-20.22,4.68-25.8,4-6.53-4.33-.9-10.21,20.62-15.59,38.9-17,34.27.75,45.58,9.12a14.69,14.69,0,0,0-4-3.79,15.83,15.83,0,0,1-2.89-6.82c-.4-3.59.15-9.36,1.69-9.07s.65,2.64,3.39,8.87,5.93,8.82,11.76,15.29,11,13.57,7.32,28A11,11,0,0,0,682.95,219.48Z" transform="translate(-39.91 -147.96)"/><path d="M664.52,223.43s2.29-4,6-5.49,4.91-.72,5.25,1.14c2.42-1.59,4.52-2.69,6.41-1.59s2.59,6.69-1.79,11.2c1.69-4.46,2.32-8.31.46-9.57s-6.18,2.19-8.07,4.32a7.13,7.13,0,0,1,1.66-3.19s-.7-4-7.41,2.49A6.27,6.27,0,0,1,664.52,223.43Z" transform="translate(-39.91 -147.96)"/><path d="M674.91,232.63s5.11-5,2.32-10.59c-.3,4.68-1,7.24-4.48,11.26A8.55,8.55,0,0,0,674.91,232.63Z" transform="translate(-39.91 -147.96)"/><path d="M659.47,243.79s1.11-5,8.14-8.79,13-4.78,20.8.72,7.7,11.46-1,14.58-14.31,3-19.72,1.89a7.93,7.93,0,0,1,1.29-1.13s2.31,1.33,10.53.07c7.54-1.16,16.11-5.7,10.66-11.25s-12.9-8.52-20.74-4.22S659.47,243.79,659.47,243.79Z" transform="translate(-39.91 -147.96)"/><path d="M663.16,243.56s5.25-6.83,16.6-4.15c-5.71.1-8,.63-10.93,1.62.7,1.53,5.38,8.93-3.39,13.68S643.15,253,644.09,239c.65-7.82,1.56-9.66,1.56-9.66s-9.18,2.58-6.79,14.79a6.85,6.85,0,0,1-1.81-.14,11,11,0,0,1,1.26-10.36c3.62-5.25,8.3-5.47,8.3-5.47a32.85,32.85,0,0,0-1,6.9,5.12,5.12,0,0,0,1.89,1.36s-.56-4.78,1.93-7.07,5.21-2,6.81.2a1.71,1.71,0,0,1-.46,1.16s-1.79-2.32-4-1-3.45,3.06-3,7.27c2.59.76,4.18,1.46,9.66.4a.53.53,0,0,1,.5.73,12.57,12.57,0,0,1-7.54.9c-4.45-.76-6-2.06-6-2.06a22.77,22.77,0,0,0,1.53,9.33c2,5.41,7.36,7.92,13.65,7.74s8.1-4,8.75-5.84-.15-4.61-1.64-6.7A16.59,16.59,0,0,0,663.16,243.56Z" transform="translate(-39.91 -147.96)"/><path d="M654.26,233a20.6,20.6,0,0,1,6-7.27c4.15-3.06,7-4,8.7-3.45s.83,2.82.83,2.82,4.58-2.26,7.64-.37a3,3,0,0,1-.15.94,7.89,7.89,0,0,0-6.28,0c-3.41,1.44-8.68,4.6-10.31,10.28-.3-.56-.8-1.36-.8-1.36s1.59-5.08,8.33-8.77c.53-1.16.9-2.13.32-2.44s-7,1.31-13.77,10A1.08,1.08,0,0,1,654.26,233Z" transform="translate(-39.91 -147.96)"/><path d="M644.94,244.13a27.26,27.26,0,0,0-15.44,1.25c-7.87,3.19-13,8.77-13.95,14.3s.4,13.45,8.17,8,17.93-14.4,26.25-15.59l-1.35-1s-4.08.27-13,6-15.95,13.36-18,8,2-13.62,11-18c6.94-3.27,16.5-2.36,16.5-2.36Z" transform="translate(-39.91 -147.96)"/><path d="M645.66,246.28a25.24,25.24,0,0,0-11.36,4c5.18-2,9.06-2.89,11.82-3C646.15,247,645.66,246.28,645.66,246.28Z" transform="translate(-39.91 -147.96)"/><path d="M670.4,252.26a36.26,36.26,0,0,1,7.07,11.81c2.34,6.82.93,17-8.7,27.38S649,311.63,628.15,321.1a24.56,24.56,0,0,0,4.82-.4s15.87-6.8,32.61-23.27,15.81-28.89,13.15-35.2a36.88,36.88,0,0,0-6-10Z" transform="translate(-39.91 -147.96)"/><path d="M684.11,250.79s-.93,1.46.93,9.9,1.79,19.06-7.11,30.55-13.71,15.61-21.09,22.68-12.75,13-13.45,15.34a126.4,126.4,0,0,1,12.42-12.85C660.9,311.9,679,297.09,685,282.81c3.88-9.53,3-13.87,2-19.94s-2.44-10-1.4-12.3A4.76,4.76,0,0,0,684.11,250.79Z" transform="translate(-39.91 -147.96)"/><path d="M612.56,321.94c-9.95,1.9-21.67,6.23-20.82,10.31s5,8.57,13.05,12.05,17.78,5.38,24.66-3.19,9.17-20.12,2.84-20.72S622.72,320,612.56,321.94Z" transform="translate(-39.91 -147.96)"/><path class="d" d="M623.47,322a88.29,88.29,0,0,0-24.71,5.93c-6.83,2.92-6.33,5-4.48,7.12a31.63,31.63,0,0,0,19.5,9.32c10.23.85,14.67-4.62,17.76-10.35s3.34-10.37,1.59-11.47S630.74,321.4,623.47,322Z" transform="translate(-39.91 -147.96)"/><path d="M649.18,323.09s1.83-.66,2.92,1.89-1.06,16.91-14.17,21.63a36.55,36.55,0,0,1,3.73-3.45s4.3-2.06,7.47-8.7.91-9.42-.38-9.88C648.91,323.85,649.18,323.09,649.18,323.09Z" transform="translate(-39.91 -147.96)"/><path d="M648.33,323.21s-.95,9.94-5.93,16.61-7.87,8.92-13.35,11.06-16-1.87-19.92-4.27c-2.39,0-2.59.24-2.59.24a26.9,26.9,0,0,0,9.17,5.58c5.73,2.09,14.72,3.77,22.71-4.88s10.23-13.86,11.62-26.22A7.82,7.82,0,0,1,648.33,323.21Z" transform="translate(-39.91 -147.96)"/><path d="M594.08,329.13s-4.22-.93-12.09-2.39-10-1.19-10.56-.65.46,2.77,5.18,6.42,14.43,10.29,26.33,10.39a28.24,28.24,0,0,0-4.18-2.54s-5.08-.15-12.55-3.84-13.6-8.32-12.8-9.17,15.15,2.49,19.26,3.49A5.9,5.9,0,0,0,594.08,329.13Z" transform="translate(-39.91 -147.96)"/><path d="M572.64,328.1s-5.18-.6-16.56-3.84-46.57-17.34-61.19-21.73S474.23,297,465,298.08s-16.67,4.38-21.32,8-1.66,5,0,5.51c-1.86.4-15.37,5.94-28.63,13.12s-19.72,9.27-27.56,11.32-13.35,3-12.69,5.45,7.11,2.79,12.88,2.59c-7.31,1.79-15.54,3.85-25.24,6.24s-11.4,3.85-10.95,5.25,5.3,7,21.84,6.84,40.75-8.77,54.73-18.4c10-6.24,13.42-8.5,13.42-8.5s1.79,2.13,11.36-1.33S464,330.7,464,330.7s-9.63,4.52-7.57,7.57,12.82-1.53,19.46-3.32,16.67-5.25,23.71-5.25c-6.71,2.32-14.35,6.64-11.29,10.36,2.13,2.52,13.68-1.59,17.6-2.92.2,1.26,2.39,3.06,11.89,2.26s16.74-2,21.59-2.86c-2.66,1.46-6.94,6.61,1,5s24.94-6.18,43.14-5.11a30.7,30.7,0,0,1-2.81-1.56s-6.38-1-20.62,1-20.62,4.68-21.27,3.64,3.24-3.39,9.32-5.8c-3.94.52-11.36,2.07-22.71,3.16s-15.89.87-16.11-.65c3.49-1.39,9.86-3.41,15.74-3.44A49.38,49.38,0,0,0,507.61,335c-7,2.29-16.84,5.38-17.58,3.39s6.8-7.4,23.24-10.86c-7.27-.1-15-.1-25.2,2.34s-17.76,4.58-22.24,5.9-7.17,1.87-7.12.67,5-4.06,11.46-7a105.13,105.13,0,0,1,14.07-5s-6.55-.47-17.88,3.36-21.3,7.6-22.79,6.28c3.31-2.59,14.15-9,14.15-9s-4.58,1.72-18.31,10.06S420,347,415,349.16s-20,8.73-30.52,9.93-19.19,1.36-25-1-5.25-3.59-1.33-4.78,15.11-3.22,24.71-5.94,20.11-7.24,26.08-11.47a105,105,0,0,1-14.3,5.9c-6.71.63-9.86.8-13.75.36s-4.15-1.59-1.06-2.39a102.81,102.81,0,0,0,24.81-8.14c13.82-6.38,19.1-9.73,32-15.36s18.28-5.93,26.75-7.92c-4.83.25-11.64.56-15,2-3.55-.07-6.84-.63-3.49-3.22s13.93-8.44,32.31-6.41,24,6.91,49.75,15.58,36.78,12.19,46.69,13.72A10.4,10.4,0,0,0,572.64,328.1Z" transform="translate(-39.91 -147.96)"/><path d="M683.15,224.15s2.62-.18,2.46,10.13c.6.77.82.67.82.67s1-10.53-3.27-11.72C682.65,223.43,683.15,224.15,683.15,224.15Z" transform="translate(-39.91 -147.96)"/><path class="c" d="M621.73,350.87A26.41,26.41,0,0,1,616,355c-3.21,1.63-14.46,4.65-19.64,3.86s-3.58-3.54-3.71-5.18-.23-4.13,3.31-5.68a56.05,56.05,0,0,0,5.48-2.69l6.61,1.35,2.56-.31,7.37,2.89Z" transform="translate(-39.91 -147.96)"/><path d="M649.83,350.6a.58.58,0,0,1-.26-.05l-.06,0,0-.05s-4.76-5.05-6.65-6.51l-.34-.26.29-.32a14.87,14.87,0,0,1,1.08-1.05l.27-.24.26.25s3.76,3.57,7,7.28l.38.43-.54.2A4.54,4.54,0,0,1,649.83,350.6Z" transform="translate(-39.91 -147.96)"/><path d="M644.09,342.62s3.71,3.52,7,7.25c-1.12.42-1.32.32-1.32.32s-4.75-5.06-6.7-6.55A14.49,14.49,0,0,1,644.09,342.62Z" transform="translate(-39.91 -147.96)"/><path d="M643.46,358.25c-.07,0-7.21-4.29-14.1-5.56l0-.78a7.52,7.52,0,0,1,2-.33,1.76,1.76,0,0,1,.39,0c.15,0,5.32.42,12.21,5l.11.07,0,.13a1.39,1.39,0,0,1-.07,1.38l-.22.26Z" transform="translate(-39.91 -147.96)"/><path d="M631.59,352s5.21.37,12.08,4.91c.25.7,0,1,0,1s-7.19-4.32-14.23-5.61A5,5,0,0,1,631.59,352Z" transform="translate(-39.91 -147.96)"/><path d="M737.14,375.44a11,11,0,0,1-1.38-.11l-.17,0c-2.14-.26-3.33-2.11-3.17-4.93l0-.71a155.16,155.16,0,0,0,.28-16.66c-.39-5.57-3.64-12.1-6.31-16-2.43-3.55-5.57-7.63-8.34-7.63H718c-2.64.09-5,2.63-6.34,7-1.33,4.15-.39,6.58,1.18,10.6l.07.19c.6,1.55,1.14,2.81,1.62,3.93a27.78,27.78,0,0,1,1.76,4.83,3.26,3.26,0,0,1-.64,2.8,4.61,4.61,0,0,1-3.67,1.55,7,7,0,0,1-1.24-.11c-3.48-.62-7.44-4.63-9.65-8.1l-.25-.4c-2.38-3.72-6.81-10.66-4.8-14a9.31,9.31,0,0,1,3.66-3,4.34,4.34,0,0,1,.65-1.19,160.62,160.62,0,0,0-17.35,7.9c-1.65.9-3.09,1.66-4.43,2.37a111.57,111.57,0,0,0-13.07,7.8c-4.07,2.8-6.39,4.33-8.26,5.56-1.44.94-2.57,1.69-3.92,2.64l-1.16.83c-1.27.93-2,1.44-2.81,1.44a3.42,3.42,0,0,1-1.83-.7c-1.84-1.18-4.14-2.73-4.63-3.44l-.06-.08v-.1a1,1,0,0,1,.16-.8v0c0-.85.5-2,2.78-4.32s3-2.94,6.1-4.08l1.55-.55c3.1-1.09,8.28-2.93,18.49-7.54A214.31,214.31,0,0,0,706.4,321c8.3-5.92,9.66-6.34,10.91-6.34l.5,0,.34,0c1.43.06,2.37,1,5.47,3.91.89.85,2,1.87,3.29,3.11l1.93,1.81a110.61,110.61,0,0,0,18,14.39c1.47,0,3.75.5,6.87,3.93,1.29.57,9.33,4.63,8.3,16.78-.9,10.69-6.5,16.29-11.57,16.29h0q-.34,0-.67,0c-4.23-.43-4.12-3.41-4-5.18,0-.8,0-1.7,0-2.46A22.59,22.59,0,0,1,742,373C739.88,375.17,738.29,375.44,737.14,375.44ZM718,327.71c2.16,0,4.59,1.4,10,8.39,4.35,5.62,6.49,12.33,6.54,20.52,0,2.53-.12,5-.25,7.42-.14,2.6-.28,5.05-.21,7.35,0,1.65.91,2.64,2.32,2.64,1.8,0,4.62-1.68,7.13-6.4a29.09,29.09,0,0,0,2.56-19.8,7.19,7.19,0,0,0-7.31-5.17c-.84,0-3.05.1-3.05.1a7.49,7.49,0,0,1,4.18-1.41,5.13,5.13,0,0,0-4.17-2.55,15.31,15.31,0,0,0-2.61.33,2.76,2.76,0,0,1,2-1.58,35.81,35.81,0,0,1-3.53-4.87c-.42-.63-1-1.68-1.25-2,0,0,5.11,4.77,7,7.05a7.21,7.21,0,0,1,4.83,3.87c3.82,1,6,5,6.09,11a55.36,55.36,0,0,1-1,10.37c0,.33.07,2.39.07,5.5,0,3.43.46,4.36,2.37,4.71a5.75,5.75,0,0,0,1.07.1c1.6,0,3.94-.68,6-3.91a21.24,21.24,0,0,0,2.73-18.26c-1.72-5.47-4.36-6.71-6.1-7.53a16.42,16.42,0,0,0-2.86-.51,23.46,23.46,0,0,0-2.86.32c.55-.83,1.7-1.39,3.56-1.51a7.56,7.56,0,0,0-4.94-2.43,8.27,8.27,0,0,0-3.74.87,2.85,2.85,0,0,1,2.13-1.83c-8.82-5.59-16.6-13.11-21.31-17.65-1.18-1.14-2.2-2.13-3-2.86a4.12,4.12,0,0,0-2.75-1.4c-1.75,0-4.16,1.67-9,5-2.86,2-6.42,4.45-11.24,7.56A172,172,0,0,1,661.8,346.4c-1.42.52-2.65,1-3.56,1.34-5.36,2.17-7.94,3.37-10,5.21-2.38,2.1-3.44,3.63-3.45,3.95s2.42,3.18,4.36,3.18c1.41,0,2.64-1,4.88-2.65,1-.72,2.15-1.63,3.61-2.64l2.07-1.44c3.08-2.15,4.12-2.87,8-5.32a160.82,160.82,0,0,1,16.22-8.89,178,178,0,0,1,19.59-8.46,32.08,32.08,0,0,0,11.13-6.8s-4.89,5.53-6.93,6.66c.14.09.28.2.45.34l.37.28,1.13.86-1.42-.14a13.78,13.78,0,0,0-1.4-.08c-2.81,0-3.87,1.07-4.36,1.95a8.3,8.3,0,0,1,1.25-.09,6.46,6.46,0,0,1,2.62.62s-3.5-.57-7.71,3.4c-3.31,3.12,1.6,11,4.69,14.76l.87,1.06c2.57,3.18,3.86,4.78,7.65,5l.55,0c1,0,1.66-.22,2-.68.69-1-.28-3.55-1.34-6l-.5-1.17c-1.76-4.08-3.28-7.61-3.22-11.48.14-6.68,5.81-11.25,8.26-11.48Z" transform="translate(-39.91 -147.96)"/><path d="M527.81,378c-1.88,0-3.83-.87-6.08-1.88a28.17,28.17,0,0,0-7.61-2.52,87.87,87.87,0,0,0-11.75-.55c-2.08,0-4.2,0-6.28,0s-3.94,0-5.76,0c-7.49,0-10.88-3.35-14.47-6.91l-.66-.65c-3.82-3.75-6-6.25-4.63-9.38.69-1.54,2.08-2.31,4.14-2.31a14.88,14.88,0,0,1,3.23.44c1.31-1.4,2.46-2,7.14-2,4.86,0,9.87,3.49,14.19,6.75a26.4,26.4,0,0,0,11.89,5.67,25.94,25.94,0,0,0,6.08.87,23.68,23.68,0,0,0,3.47-.31l.82-.11c-1.86-4.84-6.59-6.17-13.56-6.72-3.63-.29-5.74-1-6.64-2.17a3.69,3.69,0,0,1-.34-3.15l0-.11c.47-2.41,5.06-5.11,12.63-5.38l1.3,0c6.49,0,11.45,1.86,13.25,5a5.6,5.6,0,0,1,.12,5.59c-.07.55-.42,4.1,1.75,5.87,1.31,1.07,3.25,1.54,6.31,1.54a81.82,81.82,0,0,0,11.49-1.15c16.53-2.17,19.52-3.87,26.76-8l.12-.07a69.08,69.08,0,0,0,12.84-9,5.81,5.81,0,0,1,3.61-1.74,2.49,2.49,0,0,1,1.08.23l3.46,1.64-.88,1.29-.31-.15a20.7,20.7,0,0,0-3.26-1.24,1.89,1.89,0,0,0-.47-.06c-.78,0-1.53.63-3,1.9l-1.43,1.2a64.06,64.06,0,0,1-17.1,10.39c-8,3.45-15.09,4.41-22.62,5.43-1.45.19-2.91.39-4.41.61a43,43,0,0,1-6.1.5c-5.12,0-7.15-1.43-8.36-2.68a6.31,6.31,0,0,1-1.36-4.94,9.55,9.55,0,0,1-2.73.06A4.52,4.52,0,0,0,527,355c-.23-3.23-3.79-5.09-10.67-5.36q-.79,0-1.56,0c-6.92,0-12.09,1.83-12.28,4.34s3,2.92,9.27,3.4l.32,0c6.5.5,8.9,2.95,10.27,5a7.07,7.07,0,0,1,.6,5.37,4.53,4.53,0,0,1-.68-1.12,21.58,21.58,0,0,1-5,.57c-5.73,0-11.72-2.11-18.29-6.46l-2.34-1.56c-3.89-2.61-6.45-4.34-9.83-5.16a11.57,11.57,0,0,0-2.72-.34,8.22,8.22,0,0,0-4.37,1.15,31,31,0,0,1,7.12,3.9,50.59,50.59,0,0,0,9.18,5.1c7.21,2.84,10.67,3.57,13.77,3.86,0,0-11.71-1-18.83-4.64a69.63,69.63,0,0,1-6.91-4.07,20.4,20.4,0,0,0-6.09-3.1,10.93,10.93,0,0,0-2.81-.42,3.68,3.68,0,0,0-2.7.88,2.24,2.24,0,0,0-.58,1.71c.08,2.17,4.71,6.88,9,10a17.26,17.26,0,0,0,7.64,3.22,13.19,13.19,0,0,1-.79-2.82l.73-.27a16.21,16.21,0,0,0,2.51,3.15c.75.07,2.82.1,3.86.11-.19-.46-.44-1.09-.59-1.57l.69-.37a14.52,14.52,0,0,0,2,1.92l1.46,0c.88,0,2.18,0,4-.06,1.09,0,2.2,0,3.31,0a49.57,49.57,0,0,1,10.5,1,47.59,47.59,0,0,1,7.9,2.56,27.62,27.62,0,0,0,3,1.08,3,3,0,0,0,.75.09c1.48,0,3.77-.8,8.32-2.4,2.23-.78,5-1.75,8.5-2.91,12.11-4,20.1-6.6,31.28-9s18.62-3.68,18.69-3.69a3.54,3.54,0,0,1,.73,0c.64,0,1.56.06,2.72.17l0,.79c-16.33,2.7-36.56,8.31-50.64,12.55-4.92,1.48-8.57,2.87-11.5,4a36.82,36.82,0,0,1-7.39,2.33A5.43,5.43,0,0,1,527.81,378Z" transform="translate(-39.91 -147.96)"/><path d="M598.82,359.84c-3.06,0-7.15-.42-7.44-4s.91-7,3.05-8.33a43.46,43.46,0,0,1,6.26-2.8,2.9,2.9,0,0,1,.66-.07c1.22,0,1.34.77,1.34,1v.29l-.27.1a44,44,0,0,0-7.17,3.38,3.57,3.57,0,0,0-1.68,3.25c0,.32-.09.67-.15,1-.17,1-.37,2.15.17,2.9a2.89,2.89,0,0,0,2,.94,32.22,32.22,0,0,0,4.21.27,34.86,34.86,0,0,0,22.48-8.1l.59.52c-.19.3-4.8,7.33-15.49,8.86A62.92,62.92,0,0,1,598.82,359.84Z" transform="translate(-39.91 -147.96)"/><path d="M622.6,350s-4.58,7.16-15.21,8.68-15.31.86-15.61-2.89,1-6.77,2.87-8a43.89,43.89,0,0,1,6.18-2.76s1.45-.3,1.47.57a44.37,44.37,0,0,0-7.27,3.44,4,4,0,0,0-1.84,3.54c-.15,1.82-1.47,4.78,2.42,5.3A35.43,35.43,0,0,0,622.6,350Z" transform="translate(-39.91 -147.96)"/><path d="M500.88,356a7.63,7.63,0,0,0-2.31-.31h-.89a1.6,1.6,0,0,1-.36,0,.73.73,0,0,1-.59-.56c-.08-.44.28-.92,1.17-1.53a9.59,9.59,0,0,1,3-1.33l.49-.11v.51a4.51,4.51,0,0,1-.08.88l-.07.23-.23,0a7.84,7.84,0,0,0-1.67.63c.7,0,1.49.19,1.53.2l.2,0,.09.18a6,6,0,0,1,.22.66l.22.72Z" transform="translate(-39.91 -147.96)"/><path d="M477.08,355.08a2,2,0,0,1-.94-.46l-.12-.12v-.17c0-.17,0-.53-.06-.92-.13-1.55-.15-2.26.2-2.56a.88.88,0,0,1,.58-.21,2.36,2.36,0,0,1,1.46.78,22.93,22.93,0,0,0,1.93,1.44l.5.33-1.43.95-.23-.2s-1-.91-1.75-1.57v.14a18.3,18.3,0,0,0,.32,2.09l.12.58Z" transform="translate(-39.91 -147.96)"/><path d="M470.19,357.25c-.57-.56-.6-1.82-.59-3.4,0-.33,0-.64,0-.88a1.13,1.13,0,0,1,.24-.87.69.69,0,0,1,.52-.21,2,2,0,0,1,1.14.57c.45.4,1.73,1.44,1.75,1.45l.48.39-1.68.84-.2-.27a16.31,16.31,0,0,0-1.06-1.27v0c0,.15,0,.33,0,.52a5.43,5.43,0,0,0,.32,1.87c.17.28-.06.72-.26,1.13l-.25.49Z" transform="translate(-39.91 -147.96)"/><path d="M717.26,361.91a6.45,6.45,0,0,1-4.64-2.23l-.3-.42.49-.18.63-.24.4-.17.13.42s.21.51,1.32,1a7,7,0,0,0,1.54.54,9.91,9.91,0,0,0-.87-1,8.92,8.92,0,0,1-1.09-1.41l-.06-.1V358c0-.29.07-.79.43-1l.36-.18.18.36a11,11,0,0,0,1.3,1.87c.22.26.42.49.6.68.59.64,1.14,1.25.46,1.88A1.27,1.27,0,0,1,717.26,361.91Z" transform="translate(-39.91 -147.96)"/><path d="M733.76,378.59a1.09,1.09,0,0,1-.8-.33c-.61-.63-.1-1.44.27-2a4.52,4.52,0,0,0,.36-.64,5.62,5.62,0,0,0,.3-1.59l0-.71,1.13.74,0,.19a5.84,5.84,0,0,1-.3,2.37l-.12.34.24-.13a12.28,12.28,0,0,0,2.72-2.49l.09-.1.13,0a6.06,6.06,0,0,1,.87,0h.92l-.63.67a26.34,26.34,0,0,1-2.6,2.4A5.16,5.16,0,0,1,733.76,378.59Z" transform="translate(-39.91 -147.96)"/><path d="M748.21,377.57a1.68,1.68,0,0,1-.64-.13,1.23,1.23,0,0,1-.74-.8,1.76,1.76,0,0,1,.32-1.48,3.61,3.61,0,0,0,.33-1.67v-.55l1.3.41,0,.26a3.7,3.7,0,0,1-.28,1.92,2.8,2.8,0,0,0-.28.62,4.18,4.18,0,0,0,2.53-2.31l.1-.19.21,0,.41,0,.6,0,.67,0-.36.57a9.62,9.62,0,0,1-2,2.19A3.93,3.93,0,0,1,748.21,377.57Z" transform="translate(-39.91 -147.96)"/><path d="M612.86,346.2s-4.08,2.64-15.54-.75-11.56-6.87-11.61-8c1,1.3,1.94,1.1,1.94,1.1s3.34,6.67,21.62,6.38A16.91,16.91,0,0,1,612.86,346.2Z" transform="translate(-39.91 -147.96)"/><path class="g" d="M229.46,334.26a14.52,14.52,0,0,0,8.53,3.19c5.63.43,20.24.33,24.73,0s15.8-2.93,26.39.29c-3.07,1.18-1.89,2.41-1.7,2.36s6.62,1.23,9.7,5.77a27.36,27.36,0,0,0-2.79.28v3.31c-3.36-1.75-3.31-.9-3.31-.9a12,12,0,0,1-2.93,7.52c-3,3.22-10.4,10-13.76,13.24s-14.07,15.55-16.22,21.57a19.16,19.16,0,0,0,9.79-4.16c3.74-3,13-14,16.88-18.73s10.68-10.73,16.22-8.75c-.19,1,2.7.9,5.77.85a12.2,12.2,0,0,1,5.63,1.42s-4.07.85-1.8,2.22,8.8,3.17,9.65,5.44,2.36,7.19-4,10.45c0,3-.57,8.51-4.78,11.68S295.07,404.57,280,409.81s-29.75,7.85-39.73,7.52-10.12-2.13-7.38-8.23,7.62-12.5,12.44-17.5S259.23,375.43,263.3,370s7-15.21,6.13-20.45c-5-1.84-17.34-2.82-26.66-2.92s-25.82.09-25.82.09a104.64,104.64,0,0,1,7.38-7.85C227.54,335.94,229.46,334.26,229.46,334.26Z" transform="translate(-39.91 -147.96)"/><path class="h" d="M292.69,199s5.16-3.81,10.25-1.62c2.65-1.89,4.48-2.31,5.93-.68s3.28-4.68,8.45-2.28c2.77-2.27,10-10,15.58-8.2.88-4.67,4.73-19.36,13.49-18.1s12.59,12.7,9.45,20.37-13,19.42-27.16,20.49c-8.7.58-10.47.44-10.47.44a7.78,7.78,0,0,1-3.72,3.28c-2.65,1.13-28.85,4-30,10.34,3.7,2.71,5.93,5.88,12.34,9.27s20.52,5.58,27.05,2.36A6.3,6.3,0,0,1,320,238.9s7.38-1.14,16.55,8c-2.08,0-2.65,1-2.65,1s2.27,2.9,2.93,9.3,2.93,15.48-.19,25.41c-.85-2.46-1.8-2.65-1.8-2.65s-1.51,7.54-12.74,14.91a13.93,13.93,0,0,0-.38-5.36A133.21,133.21,0,0,1,303,301.7c-10.15,5.3-38.25,12.58-47.14,16.08S240,322.61,216.33,347.1c-9,.66-34.24,4.45-34.24,4.45s3.5-12.8,12.2-18.22,26.2-15.17,54.48-23.21S295.31,288,301.37,279s6.24-13.72,6.24-13.72L284,242,269.1,226.56s-11.11,2.83-15.5,3.91-28.23,4.3-37.08.76a12.69,12.69,0,0,1,2.22,3s-10.78,2.32-16.51-7.47a6.66,6.66,0,0,0-1.7,2.46s-4-12.32,2.13-21.19c-1.56-.52-2.7-.38-2.65-.52a48.66,48.66,0,0,1,8.42-6.81,54,54,0,0,1,8.84-3.83L213,195.58s-16.79-1.5-21.57.65-15.75,4.27-21,4.51-13.67,1.18-9.79-3.78c-.38-1.84-3.55-1.23-3.55-1.23s-26.56,3.09-32.07,1-.71-5.39-.71-5.39-5-.95-15.42-.43-24.21,1.56-22.56-3.22,11.45-7.21,15.78-7.93a233,233,0,0,1,42.2-3.94c22.37-.08,44.07,3.81,56.72,7.79s22.45,8,22.45,8,6.82-.07,16.84.71,28.56,6.53,35.75,7.33S287.33,201.39,292.69,199Z" transform="translate(-39.91 -147.96)"/><path class="g" d="M407.62,206c-5.18-.42-7.63.44-7.63.44s1.47-7.2.63-13.18-11.54-7.69-16.52-7.82-5.23,2.71-5.8,5a79.67,79.67,0,0,1-5.23,15.39c-4.6.57-12,6.68-14.5,10s-4.1,8.45-.33,9.77,19.18,7.31,23,9.71-6.41,12-14.94,17.59-16.58,5.23-27.62,4.38-24.59-6.91-27.3-7.79-5.68-2.21-5.68-2.21.13-.69,2.4-2.65c-2.51-1-11.41-2.08-11.41-2.08l2.4-2.9s-7.88-.69-9.77.5c-1.2-3.28-2.9-7.31-9.9-10A48.3,48.3,0,0,0,267.86,227l-8.3,2.07s7.69,3.59,11.1,5.23a15.8,15.8,0,0,1,5.51,4.72l-6.43,1.68,2.81,2.15s-10,4.07-15.54,5.8-25.73.85-32.16.57A37,37,0,0,1,212.27,246l.57,4-4.13.09L203,253.71l4.45,1.07s-15.67,13.68-18.92,17.56c-1.36-3-7.13-7-10.75-7.25s-7.57,6.12-7.57,6.12-8.61.09-14.91,2.33-9.33,8.77-9.52,12.58,5.3,6,5.3,6-1.09,6.16,2.87,10.5,6.53,2.62,8.76,3.24c0,6.49,7.19,9.69,14.38,9.69s11.76-5.2,12.61-7.2c4,.27,8.32-2.58,12.8-10.17s-3.72-13.75-5.11-15.07-2.62-1.67-3.18-2.81c10.69-13.9,24.31-19.2,42.56-20.15s39.35,8.23,41.52,9.27C275.45,280,263,291.87,246.6,300.19s-39.92,13.43-51,14.76-18,7.47-18,7.76a8.82,8.82,0,0,0,1.14,1.7l-6.55,4.3s-11.39-7.18-17.47-14.21a157.91,157.91,0,0,1-13-17.59c-2.14-3.34-3,.69-3,.69s2.08,7.06-2.33,2.21-7.09-9.05-15.07-13.87-23.14-9.77-25.16-10S99,281.9,99,281.9s5.8,5.11,2.77,4.22c-12.3-3.09-33.29-3.91-43.13-2.27s-16,2-17.85,8,11,8.07,11,8.07a76.65,76.65,0,0,1,11.74.69c5,1.47,18.82,10.91,18.82,10.91s-5.91-1.23-14.52,3.88-5.44,11.11-5.44,11.11,2.39.85-4.63,1.84-4.63,6.34-2.93,9.41,4.4,4.59,6.05,8.56c-3.07,1.8.61,6.62,3,8.89s4.21,3.88,4.21,3.88-3,.9-.71,2.6,15.13.14,15.13.14.24.24.33,2.41c3.55-.09,15.42-9.79,20.1-13a62.13,62.13,0,0,1,15.51-7.43c5-1.56,7.24-1,9.11-.6-1.87,3.52-23.82,18.1-29,21.69a9.54,9.54,0,0,0-3.88,9.46s-1.84.71-6.76.9c1.75,2.65,10.45,2.84,10.45,2.84a7.07,7.07,0,0,1-.71,3.22c5.53.09,24.92-9.08,31.92-12.34s16.74-6.72,25.07-9.55,24.5-7.47,27.34-7.95c.76-5.86,7-12.67,13.9-19.58s39.73-17.78,49.56-20.81,30.84-11.26,42.28-18.73,17.75-21,19.77-27.15c16.08-1.17,33.17,5.33,36.76,6.4s9,4.79,13.49,7.19c-.37-2.63-3.28-6.62-3.28-6.62a49.91,49.91,0,0,0,8.2,1.26,10.49,10.49,0,0,0,7.31-2.84s-4.23-.63-6.37-1.23c8.32-3.81,16.71-13.21,22.2-18.19s15.57-14.69,21.38-20.62,8.51-10.78,9.4-15.32S412.8,206.4,407.62,206Zm-250,138.16c-2.84,1.77-18.69,11.15-23.46,13.5s-9.4,2.52-8.45-1.2,8.07-11.79,9.9-14.25a73.93,73.93,0,0,1,4.85-5.61s9.4,0,12.36.57c-2.14,1.89-2.21,2.59-2.21,2.59l13.37-.54A56.53,56.53,0,0,1,157.66,344.14Z" transform="translate(-39.91 -147.96)"/><path class="h" d="M291.25,189.59s3.47-1.09,4,0-1.18,3.86-4.35,3.29-10.69-4.7-15.09-8-10.4-7.06-10.4-7.06-.4,3.55-.53,4.82-.27,5.2-.27,5.2a22.79,22.79,0,0,1-9.88-7c-4.68-5.53-4.49-6.57-4.49-6.57l-.76,3.74s-3-6.72-2-9.93,1.42-3.07,1.42-3.07h-2.32a7.75,7.75,0,0,1,4.16-3.45,25.18,25.18,0,0,1,6.57-.57l.76-1.8a13.38,13.38,0,0,1,7.9,5.68A105.94,105.94,0,0,0,280,182C286.31,188.37,287.79,189.51,291.25,189.59Z" transform="translate(-39.91 -147.96)"/><path class="i" d="M265.23,178.22s-1.81,12.47,2.9,19.12a18.76,18.76,0,0,0,7.17,1.4s-8.08-11.79-7.68-19.09A6.6,6.6,0,0,0,265.23,178.22Z" transform="translate(-39.91 -147.96)"/><path class="g" d="M268.13,197.34s-3.47-7-3.28-9.35c-4.78-1-12.54-9.74-14.57-13.42-.66,1.7-1.57,1.92-1.57,1.92S238,177,232,179.09c-7.66-2-34.81-12.93-44.74-16.43s-24.59-7.38-29.51-6.05c1.22.51,2.65,2.74,2.65,2.74l-3.12.95s-29.48,2.93-47.65,16.08c-2.95,2.65,1.31,2,1.31,2s39.47-5.48,70.2.73c11.69,2.3,33.88,7.35,41.51,12.67C233.64,191.29,255.34,193.36,268.13,197.34Z" transform="translate(-39.91 -147.96)"/><path d="M291,188.94c-3.36.38-8.56-5-17-14.23s-4.78-8.7-9.93-13.15a13.27,13.27,0,0,0-10.4-3.45s1.89,1.23,2,2.31c-7.42-.43-10.69,3.74-12.25,7.29a9.57,9.57,0,0,1,4-1.7c-2.27,6.29,1.09,12.63,3.49,15.18a13.24,13.24,0,0,1,0-4.52c0,.17,0,1.38,3.88,5.65,4.26,4.63,6.81,5.91,10.88,7.47a47.34,47.34,0,0,1,0-10.64s6.38,4.4,12.58,8.13,10.22,6.43,13.53,6.24,4-1.7,4.07-3.5S294.35,188.56,291,188.94Zm1.75,3.26c-2.79.76-5.86-1.37-10.26-4a101.33,101.33,0,0,1-14.28-10c-3.59-3.26-5-4-6.62-3.88a9.57,9.57,0,0,1-3.45-.52,2.41,2.41,0,0,0,1.28,1.8,19.69,19.69,0,0,1,5.06,2.84,49.91,49.91,0,0,0-.66,8c-5-1.61-6.75-3.53-10-7.82s-3.72-6.9-3.72-6.9a21.57,21.57,0,0,0-.91,3.44,14.88,14.88,0,0,1-.66-7.79,5.67,5.67,0,0,1,2-3.25,20.19,20.19,0,0,0-2.77,0,9.7,9.7,0,0,1,5.55-2.59,8.68,8.68,0,0,1,5.64.82,3.94,3.94,0,0,0-.5-2c2.55-.16,6,3.31,8.73,8s8.84,10.69,12.13,13.86,6.22,6,9.48,7.45,4.87.12,5.46.12S295.53,191.45,292.74,192.2Z" transform="translate(-39.91 -147.96)"/><path d="M248.32,175.77s-16.84.67-20.18,4.2-3.28,5.11.76,4.92a25.33,25.33,0,0,0,6.81-1.2s-6.94.25-5-2.46,11-3.66,18.48-4A15.18,15.18,0,0,1,248.32,175.77Z" transform="translate(-39.91 -147.96)"/><path d="M234.32,177.76s-3.81,1.29-30.68-9.3-38.59-15.23-48.62-12.3c.76,1.32,4.16,3.12,4.16,3.12s-9.93,0-25.35,5.11a112.5,112.5,0,0,0-25.44,11.92,112.24,112.24,0,0,0-15.7,5.58c-8.32,3.69-9.55,6-6.53,8.51s12.58,2.18,23.17,1.42,13.34-.19,13.34-.19-7,3-.09,5.3,22.32,1.51,37.36-.66c-1.61,2-4.26,6.81,7.38,5.77s30.3-7.69,41.08-5.68a1.58,1.58,0,0,0-.69,1.51s-.25-.76,4.41.06c-6.68,2.27-13,5.3-13.75,11.92a6.62,6.62,0,0,1,2.59-.5,22.28,22.28,0,0,0,.25,23.71c.25-2.77,1-3.41,1-3.41s2.77,5.68,19.42,5.61a5.23,5.23,0,0,1-2-2s4,1.77,20.49-.13,19.45-3.44,33.36-7.5c-3.5-.66-6.81.76-12.58,2.27s-31.4,8.89-46.82.66c0,2.36,2.84,4.92,2.84,4.92s-11.26,1.13-15.42-10a14.38,14.38,0,0,0-1,3.22,20.68,20.68,0,0,1,5.68-20.9,10.71,10.71,0,0,0-4.54,1s6.81-7.47,20.52-10.12c-6.24-1.42-22.13-3.88-32.54-.85s-27.81,6.24-28.75,3.31,7-5.11,7-5.11-17.31.66-25,2-19.11.66-19.67-1.89,9.55-3.88,9.55-3.88a120.47,120.47,0,0,0-22.89-.38c-13.53.95-22.42,1.23-22.51-1.61s22.13-10.12,22.13-10.12,22.8-17.13,54.29-17.79a32.41,32.41,0,0,0-4.82-3.31s.29-2.27,20.1,4.07,32.86,15,50.93,18.63C232.11,178.77,234.32,177.76,234.32,177.76Z" transform="translate(-39.91 -147.96)"/><path d="M227.61,181.61s-6.09,1.8-30.77-8.13-35-12.3-35.79-11a2.24,2.24,0,0,0,.38,2.59s-12.3-2.71-14.57-.69,1.26,3,1.26,3-24.47,3-35.56,8.32c-2.84,1.39-2.9,1.89-2.9,1.89a235.6,235.6,0,0,1,24.09-6c12.23-2.27,18.6-3,18.6-3s-4.35-2-3.22-3.28,11.85,1.2,15.26,2.52c-1.14-2.65-2.46-5.36,2.46-3.47s17.09,7.08,31.78,12,23.22,7.52,28.25,7.24C227.2,182.87,227.61,181.61,227.61,181.61Z" transform="translate(-39.91 -147.96)"/><path d="M225.24,190.94s-35.56-13.5-58.52-15.17-51.83-.53-61.8,3-13.37,6.13-13.37,6.13,12.23-4.65,32.79-7.27,70.25.13,97.61,14.13A11.6,11.6,0,0,0,225.24,190.94Z" transform="translate(-39.91 -147.96)"/><path d="M268.06,180s-1.2,7.63,11.1,20.05c-3.41-.82-4.41-.95-4.41-.95s-8.39-8.39-7.88-20.05A9.7,9.7,0,0,1,268.06,180Z" transform="translate(-39.91 -147.96)"/><path d="M269.64,197.31s-5.62-6.18-4-18.66c-1.43,1.36-1.47,1.69-1.47,1.69s-1.68,8.78,2.35,16.28A5.06,5.06,0,0,0,269.64,197.31Z" transform="translate(-39.91 -147.96)"/><path d="M210.74,195.73a36.4,36.4,0,0,1,16.58-5.68c9.77-.82,39.79,7.25,47.48,7.76,2.33,1.13,10.66,3.4,15.58,1.32s9.84-5.49,12.8-2.84c1.7-1.89,5.3-2.33,6.18-.57,4-3.78,6.87-2.94,8.45-2.2,2-3.67,7.76-8.9,14.57-8,.57-6.37,3.22-17.85,13.94-18.22a45.36,45.36,0,0,1,11.92,13.24,34.23,34.23,0,0,1-7.38,18.1c-6.94,8.58-14.69,12.17-31.4,11.41-1.83,3.66-12.74,5.93-22.26,6.94s-11,5.68-11,5.68,9,11.16,21.25,12S326,233,326,233a9.9,9.9,0,0,1-2.84,4.82c4.35.09,12.86,4.26,15.89,10.31a7,7,0,0,0-4.07,0s2.65,2,3.12,9.17a20.62,20.62,0,0,1-2.55-.8,10.31,10.31,0,0,0-4.92-10.12c1.42-1,3.83-.24,3.83-.24s-3.93-5.86-10.74-5.91-8.56.85-8.56.85a4.77,4.77,0,0,1,3.45-3.55c3-.9,3.22-1.28,3.22-1.28s-8.47,1.42-15.09.19-14.57-3.5-22.09-12.34c-1.61.24-4.26,2.36-4.26,2.36s1-5.91,8.51-8.89,23.93-3.09,28.09-7.5c-7-1.26-14.31-4.23-20.37-1.7s-16.58,7.76-22.7,7.44S262.07,208,262.07,208a84,84,0,0,0-9.9,4.26c-4.48,2.36-14.25,4.57-23.14,2.43,6.18-.13,9.65,1.39,18.66-2.9s17.91-11.22,31.47-7.06c-5.8-.25-11-.06-14.31,2.21.57,1.83,4.67,7.76,11.29,6.31s18.16-8.51,26.86-8.07,10.28,3.72,24.84,2.9,27.24-12.74,28-26.36c-1.83-4-10-12.42-10-12.42s-2.81-1.42-6.21,2.74a29.91,29.91,0,0,0-6.1,20,12.06,12.06,0,0,1-1.28-4.87,7.67,7.67,0,0,0-7,1.61c-3.12,2.79-6.67,4.92-8.66,10.88a19.4,19.4,0,0,1-.47-5.06s-6.4.75-8.61,5.77a9.76,9.76,0,0,1,.19-3.88s-4.26-.33-7.47,5.3a7.84,7.84,0,0,1,1.23-4.35s-2.22-1.28-8.32,2.08-9.65,2.65-23.13-.57-25.63-5.61-35.83-6.61-15.89,1-19.3,4.13C212,195.92,210.74,195.73,210.74,195.73Z" transform="translate(-39.91 -147.96)"/><path d="M293.93,198.45a12.93,12.93,0,0,0,0-6.09,11.19,11.19,0,0,1-4.11.51,15.77,15.77,0,0,0,.28,7.22C291.61,199.39,293.93,198.45,293.93,198.45Z" transform="translate(-39.91 -147.96)"/><path d="M349.21,159.95c4.56-7.92,13-14.47,16.84-11.07s3.12,13.76-2.74,25.07-14.47,11.54-18.07,9.65S342.78,171.11,349.21,159.95Z" transform="translate(-39.91 -147.96)"/><path class="e" d="M357.63,158.53c.91.38.09,3.72-.88,5.33s-2.9,3.69-4,3,0-3.15,1-4.76S356.34,158,357.63,158.53Z" transform="translate(-39.91 -147.96)"/><path d="M270.1,226.36c.08.24,14.19,1.28,20.1,11.92a21.62,21.62,0,0,1,12,1.28c-3.55.76-3.83,2.22-3.83,2.22s8.18-1.47,12.3,3.83a10.59,10.59,0,0,0-3.83.85s8.47,3.5,16.46,6,10.64,4.4,23.88,4.3S362.74,255,372,246.6s10.5-9.84,6.72-11.54-5.39-3.88-15.61-6.24-8.89-7.57-6.53-12.2,9.27-9.84,16-12.3a32,32,0,0,0,3.78-10.59c.47-2.55.47-8.81,5.39-9.32s15.51-.32,19.11,6.2c1.61,4.07,0,14,0,14s7.47-2.18,13.34,2.84,5.87,10.31-1.61,18.82S397.93,241,390.18,248.78s-15.8,15.7-24.31,20.43a16.28,16.28,0,0,0,6.43,0s-2.46,7.85-15.7,4.45c4,4.26,1.64,7.85,1.64,7.85s-6.37-6.34-13.46-8.8-15.51-6.9-36.23-6.24c-2.08,7.95-7.76,18.16-21.57,27.62s-21,11.63-44.17,18.63S189.56,331.29,183.38,350a3.69,3.69,0,0,1-2.21,1.07s-.69-5.74,9.08-15.32,24.78-15.64,61-27.62,50.07-24.21,55.24-44c18.79-.25,41.93,5.36,49.75,12.8-1.83-4.29-9-9.21-9.33-9.52,7.57,1.45,6.37,3.85,12.61,4.67s8.83-.88,8.83-.88-6,.95-7.19-1.51c5.36-2.77,9.58-4.6,21.69-16.65s36.32-31,32.79-39.85-14.06-5.86-14.06-5.86-1.39,8.26-3.09,12.3a88.4,88.4,0,0,1,.63-16.65c.82-5.36,2.59-11.41-3.47-13.56s-15.32-5.55-16.58.76-3.41,20.43-8.26,25.41a63.14,63.14,0,0,1,.57-7.88,20.1,20.1,0,0,0-10.66,7.44c-4.35,6-6.43,9,3.53,12.11s19.61,7,19.48,10-11.29,12.61-17.85,17.15-21.5,5.55-30.46,3.59-28.69-8.58-33.92-12a13.25,13.25,0,0,1,4.41-.76s-4.41-3.09-12.67-.88a12.23,12.23,0,0,1,3.66-4,12.16,12.16,0,0,0-8.76,1.13c.19-3.78-.88-4.73-4.22-7.69s-12.54-6-17.46-6A9.19,9.19,0,0,1,270.1,226.36Z" transform="translate(-39.91 -147.96)"/><path d="M339.69,270A27.22,27.22,0,0,1,337,284.39c-1.89-2.65-1.89-3.34-1.89-3.34s-1.64,8.13-14.5,16.33c1.14-4.67.31-6.37.31-6.37a95.72,95.72,0,0,1-24.85,15.2c-14.12,5.67-46.16,10.21-60.72,23.71s-18.16,17.28-18.16,17.28h-3.78s3-1.32,8.64-7.25,14.69-15.51,28.25-20.93,22.76-6.94,35.88-11.41,33.64-14.28,43.57-27.81c-.09,3.59-3.28,7.95-6.05,9.59a8.62,8.62,0,0,1-.57,4.16s9.31-5.64,11.29-15.64a7.54,7.54,0,0,1,2.52,2.9s1.32-6.68.44-11.35A9,9,0,0,1,339.69,270Z" transform="translate(-39.91 -147.96)"/><path d="M261,228.86s11.11,3.5,17.4,11.07,5.11,22.75-1.82,35.9-28.68,28.38-54.32,34.9S188,314.6,179,322.8a13,13,0,0,1,6.81-.57s-10.66,3.47-14,8.26a15.92,15.92,0,0,1,9.77-2.65s-11.92,6.75-16.9,12-31.84,22.58-40,20.24c-2.33,2.52-3.59,7.38-3.59,7.38s-2.33-2.9,1.26-9,9.27-12.74,15.39-20.62,9.84-12.86,3-16.08a105.83,105.83,0,0,0-31.34-8.7C97.74,312,76,311.38,68.29,316.68s-5.61,8.07-2.4,12,8.32,8.13,15.13,8c-2,1.2-4,3-2.81,3.22s9.74.85,12.58-2.55c-.28,2.08-1.23,4,1,3.22s6.24-.85,7.66-2.08c-.95,1.8-3.88,3-6.72,4.35s-7.1,2.06-6.43-.66c-4.82.38-14.94,2.08-13-3.59-3.22-1.13-10.17-6.72-11.59-9.88-3.26.19-9.54,1.5-7.52,6.42s8.58,9.84,13.37,11.66c-2.21.44-2.84.95-1,2.27s11.92,5,21.82-.25c-1.07,2.52-10.59,6.05-16.71,5s-11-6.18-11-6.18-1.39,1.58,1.7,5,6.05,6.05,8.7,6.24c-2.46.25-4.86,1.76-3,2.21s11.16,2,16.33-1.07a6.9,6.9,0,0,1-.95,2.52,51.94,51.94,0,0,0,12.93-7.38c5.93-4.79,21.63-15.2,30.2-13.12a33.52,33.52,0,0,0,4.79-4.41s.88,3.41-4.67,8.2a153.69,153.69,0,0,1-18.54,13.81C102,363.59,93.2,368.83,96.48,375c-2.52.57-3.34,1.32-6.49,1.2,4.54.76,7.88,2.08,12.55-.38a12.9,12.9,0,0,1-3.66,4.54s10.41-2.46,15.26-5.24,32.66-14,44.52-18.1,37-11.51,75.45-11.51,41,6.62,41,6.62-4.16-3.69-24.5-4.45-48.07,0-73.59,6-47.67,16.08-58.17,21.28S98,383.27,95,382.89c2.36-2.55,2.55-4.07,2.55-4.07s-9.18,1-13-4.07a34.66,34.66,0,0,0,9.08-.69,8.94,8.94,0,0,1,2.59-8.83c4.16-4,18.1-11.41,24.59-16.84,3.85-3.09,4.35-4.67,4.35-4.67s-7.76-.5-16.33,5.55-23.65,16.27-27.75,16.77a4,4,0,0,0,.44-3,99.68,99.68,0,0,1-10.22.5c-4.92-.06-7.94-3.41-4.41-4.73-2.78-1.26-11.54-9.71-7.95-14-6.68-6.87-12.74-15.2,1.89-18.16-1-6.5,4.54-15.45,25.16-16.21s37.33,1.83,52.46,8.35,5.49,14.85.19,20.9-14.09,17-11.92,18.35,10-1.89,19-7.66,21.85-15.8,25.35-18c-3,.47-3.4,1.13-3.4,1.13a15.93,15.93,0,0,1,8-8.51,18.27,18.27,0,0,0-2.13,0s2-3.69,8.28-7.33,20.9-2.93,43.23-10.59,44.08-16,52.12-37.68S278,234,257.18,229.94C258.69,229.47,261,228.86,261,228.86Z" transform="translate(-39.91 -147.96)"/><path d="M275.34,238s-7,1-8.65,3.5c1.56.24,2.84.28,3.74,1.61-6.05,1.32-7.14,4.07-16.36,4.92a197.65,197.65,0,0,1-25.07.52c-7.85-.24-14.85-.76-18.82-6.67-.19,2.93,1.51,7.33,1.51,7.33s-7.61-1.56-11.26,5.63a4.81,4.81,0,0,1,4.26.71s-13.34,11-15.84,15.23c-3-4.45-5.82-6.53-10.12-6.76s-8.8,3.74-9.18,6.34c-4-.33-11.9-1.5-18.59,5.19s-9,10.22-.69,18.29a6.57,6.57,0,0,0,.95-2.08s-5.37-2.93-4.6-7.63,8.51-11.1,16.4-11.73c7.44-.25,9.14.32,12.86,5.61,2,.38,1.77,0,1.77,0a20.54,20.54,0,0,0-5.93-7.44c1.51-3.15,3.59-4.48,7.95-4.22s6.37,3.4,8.39,8.13c4.54-5.61,10.52-12,22.1-20.56a18.28,18.28,0,0,0-5.89-.69,12.31,12.31,0,0,1,11-1.58c-2.33-2.71-2.4-4.54-2.4-4.54s2,2.71,17,3.41,25.41,1.32,33.8-2.21,9.21-4,12-4.6c-1.14-1.89-4.16-2.59-4.16-2.59s1.64-1.32,5.74-.88C276.38,239.24,275.34,238,275.34,238Z" transform="translate(-39.91 -147.96)"/><path d="M278.34,268.13a67.83,67.83,0,0,0-20.05-7c-10.85-1.77-28.5-4.16-38.15,0s-24.34,11.48-27.49,18.48c-.63,1.32,1,2.33,3,3.41s8.07,4.73,7.13,10.85-6.12,13.87-12.61,13.62-13.87-3.09-10.53-5.74c-.69-.57-1.77-1.26-1.77-1.26s-4.16,2-.88,4.16,8.51,5.23,15.64,4.16,12.86-8.51,12.55-15.58-7.76-11.35-9.21-12.42-.38-2.46,3.22-5.42,12.3-9.4,22.26-12.61,42.5-1.89,56.37,8A4,4,0,0,0,278.34,268.13Z" transform="translate(-39.91 -147.96)"/><path d="M194.72,292.84s-3.47-17.47-23.2-16-25,18.1-20.05,25,11,4,11,4l.25-1.38a8.91,8.91,0,0,1-9.14-3c-3.83-4.66-1.89-10.45,3.28-16.46s14.22-6.75,20.13-5.33c-5.72,1.28-19,6.05-2.37,19.15,1.84,1.7,4.35,3.92,8.18,2.6-5.25-1.51-11.73-5.53-13.05-10.88s1.8-8.65,7.14-8.84S187.33,283,194.72,292.84Z" transform="translate(-39.91 -147.96)"/><path d="M170.35,294.21s-7.38,3.59-8.42,8.18-.33,7.76,3.88,11.59,19.82,4.76,26.06-5.66a15.25,15.25,0,0,1-2.93,0s-1.28,4.19-6.72,5.61-17.21,1.19-18.16-7.44S172.23,296,172.23,296Z" transform="translate(-39.91 -147.96)"/><path d="M173.19,327.84a78.91,78.91,0,0,1-14.94-11.19c-7.38-7.07-14.19-17.09-15.51-19.74s-6.53-7.53-4.26,3.44c-4.67-5.23-13.05-15.07-22.32-18.35s-21.38-8.13-21.75-6.68-.19,4.19,6.76,9.92c-7.42-2.22-18.37-5.25-37.6-3.11s-23.84,6.68-23.65,11.29,5.8,8.32,21.82,7.63c5.61,2.65,17,7.5,19.93,10.78a19.51,19.51,0,0,0,2.65-.38s-7.31-6.05-14.76-9a88.67,88.67,0,0,1,17.78,3.4,48.12,48.12,0,0,0-24.4-6.74c-10.15.06-20.84.13-20.84-6.59.48-4.46,6.67-8.74,32.16-8.64s39.92,7.22,44.46,10.3c-4-4.11-9.84-6.9-12.16-8s-10.7-7.07-9.5-8.8,16.36,5.44,21.24,7.57,13.15,10,18.82,17.4,6.57,11,10,13.1c-3-4.26-8.7-17.88-7-18.3s1.61,2.93,7.09,9.84,16.9,18.79,24.21,22.2A6.72,6.72,0,0,0,173.19,327.84Z" transform="translate(-39.91 -147.96)"/><path d="M165.27,337.68s-9.52.38-13.18,1.32c1.58-1.89,5.36-2.9,5.36-2.9a42.39,42.39,0,0,0-14.95-.65c-3,1.41-3.08,2.23-3.08,2.23s2.53-.85,11.35-.25c-5.61,1.89-6.12,5.86-6.12,5.86s6.94-3.53,18.29-3.15A10.9,10.9,0,0,0,165.27,337.68Z" transform="translate(-39.91 -147.96)"/><path d="M230.79,333.33s-.88,3.41,11.92,3.34,22-.63,33.36-1.07,12.23.19,16,2.14c-3.41.57-4.16,1.77-4.16,1.77s9.33.44,11.16,8.58c-2.59-1.45-4-.88-4-.88a12.49,12.49,0,0,1,1.45,5.55c-2.77-3.09-4.85-3.59-4.85-3.59s.25,5.61-5.8,10.34S262.57,381.38,259.23,390c5-2.27,11.08-4.92,17.37-13.62S290.32,356,303.31,358c-1.14.57-.88,1.26-.88,1.26s6.75-1.58,11.48,2.08a3.85,3.85,0,0,0-1.39,1.89s19.23,6.43,4.6,17.66c-1.7-1.89-1.07-2.59-1.07-2.59s.51.76,3-1.89,1.76-6.94-3.28-9.46-7.76-2-7.76-2,.25-3,3.09-3.31c-2.27-1-10.41-.6-13.49,2.81.63-3.91,2.14-4.86,2.14-4.86s-6.75-.19-11.92,6.62a152.19,152.19,0,0,1-17.09,19.42c-7.13,6.81-11.6,6.43-11.6,6.43s-3.47,3.47-3.47,6.49c-.5-4-.38-8.58,6.81-17.15s14.5-14.82,19-20.12,9-7.39,8.28-15a4.67,4.67,0,0,1,3.5,1.47,8.17,8.17,0,0,0-.62-3c1.94-.19,2.6.43,2.6.43s-2.65-3.59-6.38-3.64a14.44,14.44,0,0,1-5.82-1.09,7.6,7.6,0,0,1,4.26-2.65c-3.5-.66-7.24-1.61-19.11-.28s-35.19,2.93-39-2.46A2,2,0,0,1,230.79,333.33Z" transform="translate(-39.91 -147.96)"/><path d="M270.71,349.91s.76,5.61-.57,9.71-5.3,9.9-13.62,19.61-15.13,17.46-18.79,23-7.25,10-3.91,12.86,12.8,1.45,20.3,0,29.76-4.73,43.57-15.32,19.8-13.94,16.33-20.3-14.25-3.59-14.25-3.59-.76-.82.5-2.46c-3.91.13-8.7,2.27-11.1,5.49a3.5,3.5,0,0,1,.76-3.85s-5.67,4.29-11,9.27A33.34,33.34,0,0,1,294,368.26a6.94,6.94,0,0,0-.57,4.1s6.87-3.34,13.24-1.64a1.5,1.5,0,0,0-.5,1.83s10.4,1.14,11.1,6.37,1.32,8.07-12.3,18.48-38.28,19.17-56.63,20.37-19.55-1.39-16.58-9.77,8-11.73,16.58-21.25,22.51-23.71,20-37.52C269.57,349.6,270.71,349.91,270.71,349.91Z" transform="translate(-39.91 -147.96)"/></svg>